<svg width="121" height="24" viewBox="0 0 121 24" fill="none" xmlns="http://www.w3.org/2000/svg">
<path d="M22.7148 3.69826L14.8235 0.0561347C14.7436 0.0191545 14.6566 0 14.5686 0C14.4805 0 14.3936 0.0191545 14.3136 0.0561347L6.42239 3.69826C6.31702 3.74702 6.22785 3.82498 6.16544 3.92288C6.10304 4.02079 6.07003 4.13454 6.07031 4.25064V14.57C6.07003 14.6861 6.10304 14.7998 6.16544 14.8977C6.22785 14.9957 6.31702 15.0736 6.42239 15.1224L14.3136 18.7645C14.3936 18.8015 14.4805 18.8206 14.5686 18.8206C14.6566 18.8206 14.7436 18.8015 14.8235 18.7645L22.7148 15.1224C22.8202 15.0736 22.9093 14.9957 22.9717 14.8977C23.0341 14.7998 23.0672 14.6861 23.0669 14.57V4.25064C23.0672 4.13454 23.0341 4.02079 22.9717 3.92288C22.9093 3.82498 22.8202 3.74702 22.7148 3.69826ZM14.5686 7.22504L8.12811 4.25064L14.5686 1.27625L21.0091 4.25064L14.5686 7.22504ZM21.8528 14.1815L15.1756 17.2652V8.28126L21.8528 5.1976V14.1815Z" fill="#E04E1E"/>
<path d="M14.5686 7.22504L8.12811 4.25064L14.5686 1.27625L21.0091 4.25064L14.5686 7.22504Z" fill="#E04E1E"/>
<path d="M25.4948 14.5684L27.7793 20.7624C28.2927 22.0298 27.3855 23.0666 25.7628 23.0666H2.16088C0.53824 23.0666 -0.36896 22.0298 0.142908 20.7624L3.0351 14.5684H4.85616L3.14478 20.6386H24.7789L23.6738 14.5684H25.4948Z" fill="#E04E1E"/>
<path d="M37.6747 18.6419C35.9653 18.6419 34.8969 17.7872 34.1782 16.8354V18.4282H31.8084V4.24823H34.1782V9.88138C34.9358 8.81302 35.9847 7.95834 37.6747 7.95834C40.0833 7.95834 42.4337 9.86196 42.4337 13.2807V13.3195C42.4337 16.7383 40.1027 18.6419 37.6747 18.6419ZM37.1113 16.6023C38.7236 16.6023 40.0445 15.3397 40.0445 13.3195V13.2807C40.0445 11.2994 38.6847 9.99793 37.1113 9.99793C35.4991 9.99793 34.1199 11.3188 34.1199 13.2807V13.3195C34.1199 15.2814 35.4991 16.6023 37.1113 16.6023ZM43.7623 18.4282V4.24823H46.1321V18.4282H43.7623ZM52.8653 18.6613C49.738 18.6613 47.4264 16.2721 47.4264 13.3584V13.3195C47.4264 10.3864 49.7574 7.95834 52.9042 7.95834C56.0704 7.95834 58.3625 10.3476 58.3625 13.2807V13.3195C58.3625 16.2138 56.0315 18.6613 52.8653 18.6613ZM52.9042 16.6023C54.8272 16.6023 56.0121 15.126 56.0121 13.3584V13.3195C56.0121 11.513 54.7107 10.0174 52.8653 10.0174C50.9811 10.0174 49.7768 11.4936 49.7768 13.2807V13.3195C49.7768 15.1066 51.0977 16.6023 52.9042 16.6023ZM64.2817 18.6613C61.232 18.6613 58.9788 16.2721 58.9788 13.3584V13.3195C58.9788 10.4058 61.232 7.95834 64.3206 7.95834C66.2436 7.95834 67.4285 8.67705 68.4192 9.72598L66.9429 11.2994C66.2242 10.5418 65.4666 10.0174 64.3011 10.0174C62.5918 10.0174 61.3292 11.4936 61.3292 13.2807V13.3195C61.3292 15.1455 62.5918 16.6023 64.3983 16.6023C65.5055 16.6023 66.3019 16.0973 67.0594 15.3397L68.4774 16.7383C67.4674 17.8843 66.2824 18.6613 64.2817 18.6613ZM74.4561 18.6225C72.3583 18.6225 70.4158 17.9232 68.7841 16.4469L70.2216 14.7375C71.5424 15.8836 72.8245 16.5052 74.5144 16.5052C75.9907 16.5052 76.9231 15.8059 76.9231 14.7958V14.757C76.9231 13.8052 76.3792 13.2418 73.854 12.6785C70.9597 11.9987 69.328 11.1051 69.328 8.61878V8.57993C69.328 6.24897 71.2705 4.63673 73.9705 4.63673C75.9712 4.63673 77.5058 5.23889 78.9044 6.34609L77.6223 8.15259C76.3792 7.23963 75.1748 6.75401 73.9317 6.75401C72.5331 6.75401 71.7172 7.4533 71.7172 8.36626V8.40511C71.7172 9.45404 72.3388 9.92023 74.9612 10.5418C77.8166 11.28 79.3123 12.2512 79.3123 14.5239V14.5627C79.3123 17.1268 77.3115 18.6225 74.4561 18.6225ZM83.9794 18.603C82.2506 18.603 81.0268 17.8455 81.0268 15.5922V10.1922H79.7254V8.17201H81.0268V5.35544H83.3772V8.17201H86.1355V10.1922H83.3772V15.2232C83.3772 16.1361 83.8434 16.5052 84.6398 16.5052C85.1448 16.5052 85.6305 16.3886 86.0966 16.1555V18.0786C85.4945 18.4088 84.8923 18.603 83.9794 18.603ZM90.2658 18.6419C88.3428 18.6419 86.614 17.5541 86.614 15.4757V15.4368C86.614 13.203 88.3622 12.1346 90.868 12.1346C92.0335 12.1346 92.8299 12.3095 93.6263 12.562V12.3095C93.6263 10.8332 92.7327 10.0756 91.0816 10.0756C89.9162 10.0756 89.0809 10.3281 88.1485 10.7166L87.5075 8.8713C88.6536 8.38568 89.7608 8.03604 91.3924 8.03604C92.927 8.03604 94.0536 8.42453 94.7918 9.18209C95.5493 9.93965 95.899 11.008 95.899 12.3483V18.4282H93.6068V17.1462C92.9076 17.9815 91.8392 18.6419 90.2658 18.6419ZM90.9262 16.9325C92.4802 16.9325 93.6651 16.0584 93.6651 14.7375V14.0383C93.063 13.8052 92.2665 13.6303 91.3342 13.6303C89.7996 13.6303 88.9255 14.2519 88.9255 15.3397V15.3786C88.9255 16.3692 89.7802 16.9325 90.9262 16.9325ZM102.065 21.575C100.355 21.575 98.8207 21.1671 97.4804 20.3513L98.3545 18.5836C99.4617 19.2635 100.608 19.652 102.006 19.652C104.104 19.652 105.25 18.603 105.25 16.5246V15.7476C104.396 16.8354 103.327 17.6124 101.637 17.6124C99.2092 17.6124 96.9754 15.8253 96.9754 12.8145V12.7757C96.9754 9.74541 99.2286 7.95834 101.637 7.95834C103.366 7.95834 104.434 8.75475 105.231 9.70656V8.17201H107.581V16.3304C107.581 18.0397 107.154 19.3218 106.28 20.1959C105.347 21.1282 103.929 21.575 102.065 21.575ZM102.259 15.6116C103.891 15.6116 105.27 14.4656 105.27 12.7951V12.7562C105.27 11.1051 103.891 9.95908 102.259 9.95908C100.627 9.95908 99.3452 11.0663 99.3452 12.7562V12.7951C99.3452 14.4656 100.647 15.6116 102.259 15.6116ZM114.019 18.6613C111.066 18.6613 108.754 16.5052 108.754 13.339V13.3001C108.754 10.3476 110.833 7.95834 113.766 7.95834C117.029 7.95834 118.68 10.5224 118.68 13.4749C118.68 13.6886 118.661 13.9023 118.642 14.1354H111.105C111.357 15.8253 112.523 16.7383 114.057 16.7383C115.223 16.7383 116 16.3109 116.835 15.5145L118.214 16.7383C117.224 17.9038 115.903 18.6613 114.019 18.6613ZM111.085 12.5814H116.349C116.194 11.0857 115.301 9.88138 113.747 9.88138C112.29 9.88138 111.299 10.9692 111.085 12.5814Z" fill="#08080E"/>
</svg>
